# xmcd
#
# Track frame offsets: 
#        150
#        18210
#        37867
#        59396
#        74999
#        92559
#        104495
#        114830
#        128591
#        143024
#        157764
#        176942
#        188530
#        199429
#        213166
#
# Disc length: 3013 seconds
#
# Revision: 0
# Processed by: cddbd v1.5.2PL0 Copyright (c) Steve Scherf et al.
# Submitted via: ExactAudioCopy v0.95b4
#
DISCID=ca0bc30f
DTITLE=Various Artist - Merry Christmas Volume 3
DYEAR=2002
DGENRE=Christmas
TTITLE0=Brenda Lee - Silent Night
TTITLE1=BJ Thomas - O Holy Night
TTITLE2=The Lettermen - The First Noel
TTITLE3=Crystal Gayle - What Child Is This?
TTITLE4=Glen Campbell - Carol Medley
TTITLE5=Kim Carnes - O Little Town of Bethlehem
TTITLE6=Larry Gatlin - I Heard the Bells on Christmas Day
TTITLE7=Lee Greenwood - What Child is This?
TTITLE8=Loretta Lynn - Deck the Halls
TTITLE9=Louise Mandrell - All I Want for Christmas
TTITLE10=Marilyn McCoo - O Come, All Ye Faithful
TTITLE11=Merle Haggard - If We Make It Through December
TTITLE12=Porter Wagoner - Jingle Bells
TTITLE13=Waylon Jennings - Away In a Manger
TTITLE14=Willie Nelson - Joy To the World
EXTD=
EXTT0=
EXTT1=
EXTT2=
EXTT3=
EXTT4=
EXTT5=
EXTT6=
EXTT7=
EXTT8=
EXTT9=
EXTT10=
EXTT11=
EXTT12=
EXTT13=
EXTT14=
PLAYORDER=
